<svg version="1.1" xmlns="http://www.w3.org/2000/svg" xmlns:xlink="http://www.w3.org/1999/xlink" x="0px" y="0px" viewBox="0 0 109.4 21.1" enable-background="new 0 0 109.4 21.1" xml:space="preserve">
                <path id="logo_white_a1" class="logo_white_grp1" fill="#000000" d="M12.4,0.2H9c-1,0-1.7,0.5-2.1,1.4L0,21h4.5l1.3-4.3H14l1.4,4.3h4.5L12.4,0.2z
	 M7,13.2l2.9-8.8l2.9,8.8H7z" data-svg-origin="9.949999809265137 10.599999621510506" transform="matrix(1,0,0,1,0,0)" style="transform-origin: 0px 0px;"></path>
                    <path id="logo_white_l" class="logo_white_grp1" fill="#000000" d="M22.5,21V2.4c0-0.6,0.2-1.1,0.6-1.5c0.4-0.5,0.9-0.7,1.5-0.7h2.1v17h10.2v3.9
	H22.5V21z" data-svg-origin="29.700000762939453 10.649999916553497" transform="matrix(1,0,0,1,0,0)" style="transform-origin: 0px 0px;"></path>
                    <path id="logo_white_t" class="logo_white_grp1" fill="#000000" d="M39.4,21V3.9h-6.2V2.4c0-0.6,0.2-1.1,0.6-1.5c0.5-0.5,1-0.7,1.6-0.7h14.4v3.7
	h-6.1V21C43.7,21,39.4,21,39.4,21z" data-svg-origin="41.49999809265137 10.599999725818634" transform="matrix(1,0,0,1,0,0)" style="transform-origin: 0px 0px;"></path>
                    <path id="logo_white_r" class="logo_white_grp2" fill="#000000" d="M86.9,19.7c0-0.2-0.1-0.5-0.1-0.8v-0.8l-0.1-2.5c-0.1-1.5-0.3-2.5-0.7-3.1
	c-0.4-0.6-1-1.1-1.9-1.5c1-0.4,1.8-0.9,2.3-1.8C87,8.4,87.2,7.3,87.2,6c0-1.9-0.6-3.4-1.7-4.4c-1.1-1-2.8-1.5-5-1.5h-7.9
	C72,0.2,71.4,0.4,71,0.9c-0.4,0.4-0.6,0.9-0.6,1.5V21h4.3v-8.1h4.5c1.1,0,1.9,0.2,2.4,0.7c0.4,0.5,0.6,1.4,0.7,2.6l0.1,2.2
	c0,0.2,0,0.7,0.1,1.3c0,0.4,0.2,0.9,0.4,1.3h4.7C87.2,20.8,87,20.4,86.9,19.7z M82.1,8.6c-0.5,0.4-1.3,0.7-2.4,0.7h-5V3.8H80
	c1,0,1.7,0.2,2.2,0.7C82.7,4.9,83,5.6,83,6.6C82.9,7.5,82.7,8.2,82.1,8.6z" data-svg-origin="79 10.549999713897705" transform="matrix(1,0,0,1,0,0)" style="transform-origin: 0px 0px;"></path>
                    <path id="logo_white_a2" class="logo_white_grp2" fill="#000000" d="M102,0.2h-3.4c-1,0-1.7,0.5-2.1,1.4L89.6,21h4.5l1.3-4.3h8.1l1.4,4.3h4.5
	L102,0.2z M96.7,13.2l2.9-8.8l2.9,8.8H96.7z" data-svg-origin="99.5 10.599999621510506" transform="matrix(1,0,0,1,0,0)" style="transform-origin: 0px 0px;"></path>
                    <rect id="logo_white_e3" x="53.2" y="17.3" fill="#000000" width="13.4" height="3.7" style="width: 13px;"></rect>
                    <rect id="logo_white_e2" x="53.2" y="8.6" fill="#000000" width="13.4" height="3.8" data-svg-origin="53.20000076293945 8.600000381469727" transform="matrix(1,0,0,1,0,0)" style="transform-origin: 0px 0px; width: 13px;"></rect>
                    <rect id="logo_white_e1" x="53.2" fill="#000000" width="13.4" height="3.7" style="width: 13px;"></rect>
            </svg>