<svg xmlns="http://www.w3.org/2000/svg" width="24" height="24" viewBox="0 0 24 24">
    <g fill="none" fill-rule="evenodd">
        <g>
            <g>
                <g>
                    <g>
                        <path d="M0 0H24V24H0z" transform="translate(-1709 -187) translate(1701 149) translate(0 32) translate(8 6)"/>
                        <g>
                            <path fill="#207FF4" d="M0 6.851L0 6.854 0 12.95 5.285 15.999 12.758 11.68 12.758 9.123 5.285 13.463 5.285 13.467 2.196 11.682 2.196 8.12 7.475 5.074 5.281 3.804z" transform="translate(-1709 -187) translate(1701 149) translate(0 32) translate(8 6) translate(4 4)"/>
                            <path fill="#7DB3F6" d="M5.281 3.803L10.561 6.859 10.565 6.857 12.757 8.123 12.757 11.678 12.755 11.68 9.67 13.46 4.391 10.396 2.195 11.682 9.669 15.997 14.951 12.947 14.954 6.855 7.476 2.535z" transform="translate(-1709 -187) translate(1701 149) translate(0 32) translate(8 6) translate(4 4)"/>
                            <path fill="#C0D8FF" d="M2.195 3.049L2.195 11.682 4.391 12.951 4.391 4.318 4.391 4.317 7.476 2.537 10.561 4.318 10.561 10.399 12.758 9.123 12.758 3.049 7.476 0.001z" transform="translate(-1709 -187) translate(1701 149) translate(0 32) translate(8 6) translate(4 4)"/>
                            <path fill="#207FF4" d="M0 6.851L0 6.854 2.196 8.12 7.475 5.074 5.281 3.804z" transform="translate(-1709 -187) translate(1701 149) translate(0 32) translate(8 6) translate(4 4)"/>
                        </g>
                    </g>
                </g>
            </g>
        </g>
    </g>
</svg>
